<svg width="25" height="25" viewBox="0 0 25 25" fill="none" xmlns="http://www.w3.org/2000/svg">
<path d="M22.3333 12.5V17.5C22.3333 20.5 20.3333 22.5 17.3333 22.5H7.33325C4.33325 22.5 2.33325 20.5 2.33325 17.5V12.5C2.33325 9.78 3.97325 7.88 6.52325 7.56C6.78325 7.52 7.05325 7.5 7.33325 7.5H17.3333C17.5933 7.5 17.8433 7.50999 18.0833 7.54999C20.6633 7.84999 22.3333 9.76 22.3333 12.5Z" stroke="#9DB2CE" stroke-width="1.5" stroke-linecap="round" stroke-linejoin="round"/>
<path d="M18.0847 7.55C17.8447 7.51 17.5947 7.50001 17.3347 7.50001H7.33466C7.05466 7.50001 6.78466 7.52001 6.52466 7.56001C6.66466 7.28001 6.86466 7.02001 7.10466 6.78001L10.3547 3.52C11.7247 2.16 13.9447 2.16 15.3147 3.52L17.0647 5.29002C17.7047 5.92002 18.0447 6.72 18.0847 7.55Z" stroke="#9DB2CE" stroke-width="1.5" stroke-linecap="round" stroke-linejoin="round"/>
<path d="M22.3333 13H19.3333C18.2333 13 17.3333 13.9 17.3333 15C17.3333 16.1 18.2333 17 19.3333 17H22.3333" stroke="#9DB2CE" stroke-width="1.5" stroke-linecap="round" stroke-linejoin="round"/>
</svg>
