<svg width="26" height="27" viewBox="0 0 26 27" fill="none" xmlns="http://www.w3.org/2000/svg">
<path d="M22.3593 9.87022L21.5177 9.98962L22.3593 9.87022ZM23.0301 14.5983L23.8717 14.4789L23.0301 14.5983ZM2.96992 14.5983L2.12834 14.4789L2.96992 14.5983ZM3.6407 9.87022L4.48227 9.98962L3.6407 9.87022ZM1.67168 16.9465L1.08957 16.3272H1.08956L1.67168 16.9465ZM24.3283 16.9465L23.7462 17.5659L24.3283 16.9465ZM16.4049 4.34839H15.5549C15.5549 4.73136 15.811 5.06703 16.1804 5.1682L16.4049 4.34839ZM9.59508 4.34839L9.81963 5.1682C10.189 5.06703 10.4451 4.73135 10.4451 4.34839H9.59508ZM18.2697 23.4606C18.4689 23.0355 18.2857 22.5294 17.8606 22.3303C17.4355 22.1311 16.9294 22.3143 16.7303 22.7394L18.2697 23.4606ZM9.26972 22.7394C9.07057 22.3143 8.56452 22.1311 8.13941 22.3303C7.7143 22.5294 7.53113 23.0355 7.73028 23.4606L9.26972 22.7394ZM21.6658 19.85H4.33422V21.55H21.6658V19.85ZM21.5177 9.98962L22.1885 14.7177L23.8717 14.4789L23.2009 9.75083L21.5177 9.98962ZM3.81149 14.7177L4.48227 9.98962L2.79912 9.75083L2.12834 14.4789L3.81149 14.7177ZM2.25379 17.5659C3.09914 16.7715 3.65926 15.7907 3.81149 14.7177L2.12834 14.4789C2.03895 15.109 1.70118 15.7523 1.08957 16.3272L2.25379 17.5659ZM22.1885 14.7177C22.3407 15.7907 22.9009 16.7715 23.7462 17.5659L24.9104 16.3272C24.2988 15.7523 23.961 15.109 23.8717 14.4789L22.1885 14.7177ZM4.33422 19.85C3.17287 19.85 2.38532 19.3832 2.05069 18.9114C1.88782 18.6818 1.83473 18.4617 1.85372 18.2687C1.87238 18.0793 1.96866 17.8339 2.25379 17.5659L1.08956 16.3272C0.551924 16.8324 0.226816 17.4429 0.161904 18.1022C0.0973313 18.758 0.298486 19.3796 0.664122 19.895C1.38651 20.9134 2.75301 21.55 4.33422 21.55V19.85ZM21.6658 21.55C23.247 21.55 24.6135 20.9134 25.3359 19.895C25.7015 19.3796 25.9027 18.758 25.8381 18.1022C25.7732 17.4429 25.4481 16.8324 24.9104 16.3272L23.7462 17.5659C24.0313 17.8339 24.1276 18.0793 24.1463 18.2687C24.1653 18.4617 24.1122 18.6818 23.9493 18.9114C23.6147 19.3832 22.8271 19.85 21.6658 19.85V21.55ZM17.2549 4.34839V4.22394H15.5549V4.34839H17.2549ZM23.2009 9.75083C22.7727 6.73261 20.017 4.45646 16.6295 3.52859L16.1804 5.1682C19.2201 6.0008 21.2225 7.90891 21.5177 9.98962L23.2009 9.75083ZM10.4451 4.34839V4.22394H8.74508V4.34839H10.4451ZM4.48227 9.98962C4.77746 7.90891 6.77995 6.0008 9.81963 5.1682L9.37053 3.52859C5.98302 4.45646 3.22732 6.73261 2.79912 9.75083L4.48227 9.98962ZM13 2.35C14.5978 2.35 15.5549 3.35618 15.5549 4.22394H17.2549C17.2549 2.08291 15.1631 0.65 13 0.65V2.35ZM13 0.65C10.8369 0.65 8.74508 2.08291 8.74508 4.22394H10.4451C10.4451 3.35618 11.4022 2.35 13 2.35V0.65ZM16.7303 22.7394C16.2523 23.7596 14.8455 24.65 13 24.65V26.35C15.3096 26.35 17.4376 25.2368 18.2697 23.4606L16.7303 22.7394ZM13 24.65C11.1545 24.65 9.74766 23.7596 9.26972 22.7394L7.73028 23.4606C8.56239 25.2368 10.6904 26.35 13 26.35V24.65Z" fill="#9DB2CE"/>
</svg>
