<svg width="24" height="24" viewBox="0 0 24 24" fill="none" xmlns="http://www.w3.org/2000/svg">
<g clip-path="url(#clip0_212_391)">
<path d="M21.7988 12.1111C21.7988 17.4614 17.4616 21.7986 12.1113 21.7986C6.76105 21.7986 2.42383 17.4614 2.42383 12.1111C2.42383 6.76081 6.76105 2.42358 12.1113 2.42358C17.4616 2.42358 21.7988 6.76081 21.7988 12.1111ZM10.9908 17.2405L18.1783 10.053C18.4223 9.80898 18.4223 9.41323 18.1783 9.16917L17.2944 8.2853C17.0504 8.0412 16.6546 8.0412 16.4105 8.2853L10.5488 14.1469L7.81215 11.4103C7.56809 11.1662 7.17234 11.1662 6.92824 11.4103L6.04437 12.2941C5.80031 12.5382 5.80031 12.9339 6.04437 13.178L10.1069 17.2405C10.351 17.4846 10.7467 17.4846 10.9908 17.2405V17.2405Z" fill="white"/>
</g>
<defs>
<clipPath id="clip0_212_391">
<rect width="20" height="20" fill="white" transform="translate(2.11121 2.11108)"/>
</clipPath>
</defs>
</svg>
