<svg width="24" height="24" viewBox="0 0 24 24" fill="none" xmlns="http://www.w3.org/2000/svg">
<path fill-rule="evenodd" clip-rule="evenodd" d="M9.99999 2.7C9.65521 2.7 9.32455 2.83697 9.08075 3.08076C8.83695 3.32456 8.69999 3.65522 8.69999 4V5.3H15.3V4C15.3 3.65522 15.163 3.32456 14.9192 3.08076C14.6754 2.83697 14.3448 2.7 14 2.7H9.99999ZM16.7 5.3V4C16.7 3.28392 16.4155 2.59716 15.9092 2.09081C15.4028 1.58447 14.7161 1.3 14 1.3H9.99999C9.2839 1.3 8.59715 1.58447 8.0908 2.09081C7.58445 2.59716 7.29999 3.28392 7.29999 4V5.3H2.99999C2.61339 5.3 2.29999 5.6134 2.29999 6C2.29999 6.3866 2.61339 6.7 2.99999 6.7H4.29999V20C4.29999 20.7161 4.58445 21.4028 5.0908 21.9092C5.59715 22.4155 6.2839 22.7 6.99999 22.7H17C17.7161 22.7 18.4028 22.4155 18.9092 21.9092C19.4155 21.4028 19.7 20.7161 19.7 20V6.7H21C21.3866 6.7 21.7 6.3866 21.7 6C21.7 5.6134 21.3866 5.3 21 5.3H16.7ZM5.69999 6.7V20C5.69999 20.3448 5.83695 20.6754 6.08075 20.9192C6.32455 21.163 6.65521 21.3 6.99999 21.3H17C17.3448 21.3 17.6754 21.163 17.9192 20.9192C18.163 20.6754 18.3 20.3448 18.3 20V6.7H5.69999ZM9.99999 10.3C10.3866 10.3 10.7 10.6134 10.7 11V17C10.7 17.3866 10.3866 17.7 9.99999 17.7C9.61339 17.7 9.29999 17.3866 9.29999 17V11C9.29999 10.6134 9.61339 10.3 9.99999 10.3ZM14 10.3C14.3866 10.3 14.7 10.6134 14.7 11V17C14.7 17.3866 14.3866 17.7 14 17.7C13.6134 17.7 13.3 17.3866 13.3 17V11C13.3 10.6134 13.6134 10.3 14 10.3Z" fill="#2B2B2B"/>
</svg>
