<svg width="24" height="24" viewBox="0 0 24 24" fill="none" xmlns="http://www.w3.org/2000/svg">
<g clip-path="url(#clip0_212_409)">
<path d="M22.9845 19.2936C23.661 20.4663 22.8118 21.9321 21.4606 21.9321H3.87221C2.51842 21.9321 1.67317 20.464 2.34836 19.2936L11.1427 4.04571C11.8195 2.87254 13.5147 2.87466 14.1904 4.04571L22.9845 19.2936V19.2936ZM12.6665 16.1412C11.7354 16.1412 10.9806 16.896 10.9806 17.8271C10.9806 18.7582 11.7354 19.5131 12.6665 19.5131C13.5977 19.5131 14.3525 18.7582 14.3525 17.8271C14.3525 16.896 13.5977 16.1412 12.6665 16.1412ZM11.0659 10.081L11.3377 15.0656C11.3505 15.2988 11.5433 15.4814 11.7769 15.4814H13.5562C13.7897 15.4814 13.9826 15.2988 13.9953 15.0656L14.2672 10.081C14.2809 9.82909 14.0803 9.61724 13.828 9.61724H11.505C11.2527 9.61724 11.0521 9.82909 11.0659 10.081V10.081Z" fill="white"/>
</g>
<defs>
<clipPath id="clip0_212_409">
<rect width="21.1111" height="18.7654" fill="white" transform="translate(2.11121 3.16663)"/>
</clipPath>
</defs>
</svg>
